<?xml version="1.0" encoding="iso-8859-1"?>
<!-- Generator: Adobe Illustrator 19.1.1, SVG Export Plug-In . SVG Version: 6.00 Build 0)  -->
<svg version="1.1" id="Layer_1" xmlns="http://www.w3.org/2000/svg" xmlns:xlink="http://www.w3.org/1999/xlink" x="0px" y="0px"
	 viewBox="0 0 48 48" enable-background="new 0 0 48 48" xml:space="preserve">
<path fill="#78909C" d="M25.969,44h-3.938C20.909,44,20,43.091,20,41.969V30h8v11.969C28,43.091,27.091,44,25.969,44z"/>
<path fill="#90A4AE" d="M16,10.969V5.031C16,4.462,16.462,4,17.031,4h13.938C31.538,4,32,4.462,32,5.031v5.938
	C32,11.538,31.538,12,30.969,12H17.031C16.462,12,16,11.538,16,10.969z M12.263,17.035c-0.534-0.144-1.083,0.169-1.228,0.702
	L8.203,28.121C6.937,28.473,6,29.623,6,31c0,0.553,0.448,1,1,1s1-0.447,1-1c0-0.552,0.449-1,1-1s1,0.448,1,1c0,0.553,0.448,1,1,1
	s1-0.447,1-1c0-1.213-0.727-2.255-1.765-2.727l2.73-10.01C13.11,17.73,12.796,17.181,12.263,17.035z M39.797,28.121l-2.832-10.384
	c-0.146-0.534-0.699-0.845-1.228-0.702c-0.533,0.146-0.848,0.695-0.702,1.228l2.73,10.01C36.727,28.745,36,29.787,36,31
	c0,0.553,0.447,1,1,1s1-0.447,1-1c0-0.552,0.448-1,1-1s1,0.448,1,1c0,0.553,0.447,1,1,1s1-0.447,1-1
	C42,29.623,41.063,28.473,39.797,28.121z M31.376,15H16.624c-1.56,0-2.78,1.347-2.624,2.9l1.473,14.725
	C15.607,33.973,16.742,35,18.097,35h11.806c1.355,0,2.49-1.027,2.624-2.375L34,17.9C34.155,16.347,32.936,15,31.376,15z"/>
<rect x="20" y="20" fill="#607D8B" width="8" height="5"/>
<path fill="#455A64" d="M27,10h-6c-1.1,0-2-0.9-2-2v0c0-1.1,0.9-2,2-2h6c1.1,0,2,0.9,2,2v0C29,9.1,28.1,10,27,10z M14,18
	c0-1.105-0.895-2-2-2s-2,0.895-2,2s0.895,2,2,2S14,19.105,14,18z M28,35h-8v2h8V35z M28,39h-2c-0.552,0-1,0.448-1,1l0,0
	c0,0.552,0.448,1,1,1h2V39z M23,40L23,40c0-0.552-0.448-1-1-1h-2v2h2C22.552,41,23,40.552,23,40z M36,20c1.105,0,2-0.895,2-2
	s-0.895-2-2-2s-2,0.895-2,2S34.895,20,36,20z M25,13.277V12h-2v1.277c-0.595,0.346-1,0.984-1,1.723h1h2h1
	C26,14.262,25.595,13.624,25,13.277z"/>
<path fill="#18FFFF" d="M20,8c0-0.552,0.448-1,1-1s1,0.448,1,1s-0.448,1-1,1S20,8.552,20,8z M27,9c0.552,0,1-0.448,1-1s-0.448-1-1-1
	s-1,0.448-1,1S26.448,9,27,9z"/>
</svg>
